<svg xmlns="http://www.w3.org/2000/svg" viewBox="0 0 480 260">
  <rect width="480" height="260" fill="#EBF0F6"/>

  <!-- 6 ince kolon: klasik Kanban gelistirme hatti -->
  <g fill="#dbe6f0" stroke="#c3d3e2">
    <rect x="16" y="30" width="66" height="200" rx="9"/>
    <rect x="90" y="30" width="66" height="200" rx="9"/>
    <rect x="164" y="30" width="66" height="200" rx="9"/>
    <rect x="238" y="30" width="66" height="200" rx="9"/>
    <rect x="312" y="30" width="66" height="200" rx="9"/>
    <rect x="386" y="30" width="66" height="200" rx="9"/>
  </g>
  <g fill="#ffffff" stroke="#c3d3e2">
    <rect x="23" y="42" width="52" height="24" rx="5"/>
    <rect x="97" y="42" width="52" height="24" rx="5"/>
    <rect x="171" y="42" width="52" height="24" rx="5"/>
    <rect x="171" y="72" width="52" height="24" rx="5"/>
    <rect x="245" y="42" width="52" height="24" rx="5"/>
    <rect x="319" y="42" width="52" height="24" rx="5"/>
  </g>
  <rect x="393" y="42" width="52" height="24" rx="5" fill="#aac4dc" stroke="#8fb0cf"/>

  <!-- Rozet: kod parantezi (gelistirme/dev odakli) -->
  <circle cx="440" cy="34" r="26" fill="#ffffff" stroke="#235585" stroke-width="2.5"/>
  <path d="M434 24 l-8 10 l8 10 M446 24 l8 10 l-8 10" fill="none" stroke="#235585" stroke-width="2.6" stroke-linecap="round" stroke-linejoin="round"/>
</svg>
